<svg xmlns="http://www.w3.org/2000/svg" viewBox="0 0 720 820" role="img" aria-label="country stage background">
  <defs>
    <linearGradient id="sky" x1="0" x2="0" y1="0" y2="1">
      <stop offset="0" stop-color="#082f49"/>
      <stop offset="0.55" stop-color="#0ea5e9"/>
      <stop offset="1" stop-color="#bbf7d0"/>
    </linearGradient>
    <linearGradient id="field" x1="0" x2="1" y1="0" y2="1">
      <stop offset="0" stop-color="#22c55e"/>
      <stop offset="1" stop-color="#84cc16"/>
    </linearGradient>
  </defs>
  <rect width="720" height="820" fill="url(#sky)"/>
  <circle cx="594" cy="96" r="48" fill="#fde68a"/>
  <path d="M0 430 C120 360 220 410 330 346 C440 280 560 346 720 286 V820 H0 Z" fill="#14532d" opacity="0.9"/>
  <path d="M0 516 C160 440 300 522 462 454 C560 412 632 432 720 390 V820 H0 Z" fill="url(#field)"/>
  <g fill="#dcfce7" opacity="0.7">
    <path d="M70 604 q32 -52 64 0"/>
    <path d="M210 560 q38 -64 76 0"/>
    <path d="M486 590 q44 -72 88 0"/>
  </g>
  <g transform="translate(448 450)">
    <rect x="0" y="56" width="96" height="74" rx="4" fill="#7c2d12"/>
    <path d="M-10 60 L48 12 L106 60 Z" fill="#b45309"/>
    <rect x="36" y="86" width="24" height="44" fill="#451a03"/>
    <circle cx="76" cy="78" r="9" fill="#fef3c7"/>
  </g>
  <path d="M330 820 C318 740 342 660 386 588 C426 524 448 482 436 430" fill="none" stroke="#fef3c7" stroke-width="42" opacity="0.45"/>
  <path d="M334 820 C324 740 348 662 388 596 C426 534 444 486 434 432" fill="none" stroke="#92400e" stroke-width="10" opacity="0.28"/>
</svg>
