<svg xmlns="http://www.w3.org/2000/svg" viewBox="0 0 720 820" role="img" aria-label="moon stage background">
  <defs>
    <radialGradient id="earth" cx="45%" cy="40%" r="60%">
      <stop offset="0" stop-color="#bfdbfe"/>
      <stop offset="0.5" stop-color="#2563eb"/>
      <stop offset="1" stop-color="#0f172a"/>
    </radialGradient>
    <linearGradient id="space" x1="0" x2="0" y1="0" y2="1">
      <stop offset="0" stop-color="#020617"/>
      <stop offset="1" stop-color="#1e293b"/>
    </linearGradient>
  </defs>
  <rect width="720" height="820" fill="url(#space)"/>
  <circle cx="120" cy="120" r="74" fill="url(#earth)" opacity="0.92"/>
  <g fill="#f8fafc" opacity="0.9">
    <circle cx="260" cy="82" r="2"/>
    <circle cx="404" cy="126" r="2"/>
    <circle cx="604" cy="82" r="3"/>
    <circle cx="558" cy="270" r="2"/>
    <circle cx="214" cy="302" r="2"/>
    <circle cx="92" cy="274" r="1.5"/>
  </g>
  <path d="M0 590 C160 520 310 566 462 520 C560 490 650 500 720 470 V820 H0 Z" fill="#cbd5e1"/>
  <path d="M0 638 C180 590 310 640 470 600 C568 576 650 590 720 560 V820 H0 Z" fill="#94a3b8"/>
  <g fill="#64748b" opacity="0.5">
    <ellipse cx="164" cy="666" rx="54" ry="16"/>
    <ellipse cx="402" cy="628" rx="76" ry="18"/>
    <ellipse cx="584" cy="704" rx="48" ry="14"/>
    <ellipse cx="262" cy="742" rx="84" ry="20"/>
  </g>
  <g transform="translate(470 436)" opacity="0.8">
    <rect x="0" y="44" width="96" height="62" rx="8" fill="#e2e8f0"/>
    <path d="M12 44 L48 8 L84 44 Z" fill="#f8fafc"/>
    <rect x="40" y="72" width="18" height="34" fill="#475569"/>
  </g>
</svg>
