<svg xmlns="http://www.w3.org/2000/svg" viewBox="0 0 720 820" role="img" aria-label="town stage background">
  <defs>
    <linearGradient id="sky" x1="0" x2="0" y1="0" y2="1">
      <stop offset="0" stop-color="#0f172a"/>
      <stop offset="0.45" stop-color="#1d4ed8"/>
      <stop offset="1" stop-color="#38bdf8"/>
    </linearGradient>
    <linearGradient id="road" x1="0" x2="0" y1="0" y2="1">
      <stop offset="0" stop-color="#334155"/>
      <stop offset="1" stop-color="#0f172a"/>
    </linearGradient>
  </defs>
  <rect width="720" height="820" fill="url(#sky)"/>
  <circle cx="112" cy="96" r="42" fill="#fde68a" opacity="0.9"/>
  <g opacity="0.42" fill="#e0f2fe">
    <circle cx="82" cy="188" r="2"/>
    <circle cx="220" cy="86" r="2"/>
    <circle cx="520" cy="148" r="2"/>
    <circle cx="642" cy="78" r="2"/>
  </g>
  <g transform="translate(0 430)">
    <rect x="36" y="72" width="90" height="210" rx="6" fill="#1e293b"/>
    <rect x="150" y="16" width="112" height="266" rx="6" fill="#334155"/>
    <rect x="290" y="92" width="86" height="190" rx="6" fill="#1e293b"/>
    <rect x="408" y="44" width="126" height="238" rx="6" fill="#475569"/>
    <rect x="570" y="108" width="98" height="174" rx="6" fill="#334155"/>
    <g fill="#fef3c7" opacity="0.9">
      <rect x="58" y="102" width="14" height="20"/>
      <rect x="94" y="142" width="14" height="20"/>
      <rect x="180" y="54" width="16" height="22"/>
      <rect x="222" y="104" width="16" height="22"/>
      <rect x="430" y="82" width="18" height="22"/>
      <rect x="484" y="132" width="18" height="22"/>
      <rect x="596" y="146" width="16" height="22"/>
      <rect x="636" y="188" width="16" height="22"/>
    </g>
  </g>
  <path d="M0 820 L250 620 H470 L720 820 Z" fill="url(#road)" opacity="0.86"/>
  <path d="M360 648 L360 820" stroke="#f8fafc" stroke-width="8" stroke-dasharray="34 30" opacity="0.78"/>
</svg>
